{
	"asset":{
		"generator":"Khronos glTF Blender I/O v4.3.47",
		"version":"2.0"
	},
	"scene":0,
	"scenes":[
		{
			"name":"Scene",
			"nodes":[
				0,
				1,
				2,
				3
			]
		}
	],
	"nodes":[
		{
			"mesh":0,
			"name":"asd_1_phong4_0",
			"translation":[
				-0.040310993790626526,
				-0.0229567289352417,
				-1.401839256286621
			]
		},
		{
			"mesh":1,
			"name":"asd_2_phong5_0",
			"translation":[
				-0.13799917697906494,
				-0.12264547497034073,
				-4.2540602684021
			]
		},
		{
			"mesh":2,
			"name":"asd_3_phong6_0",
			"translation":[
				0.06927439570426941,
				-0.09496280550956726,
				4.072284698486328
			]
		},
		{
			"mesh":3,
			"name":"asd_4_phong7_0",
			"translation":[
				0.016843974590301514,
				-0.04488924890756607,
				1.2597894668579102
			]
		}
	],
	"materials":[
		{
			"doubleSided":true,
			"name":"phong4",
			"normalTexture":{
				"index":0
			},
			"pbrMetallicRoughness":{
				"baseColorTexture":{
					"index":1
				},
				"metallicFactor":0,
				"roughnessFactor":0.8942628502845764
			}
		},
		{
			"doubleSided":true,
			"name":"phong5",
			"normalTexture":{
				"index":2
			},
			"pbrMetallicRoughness":{
				"baseColorTexture":{
					"index":3
				},
				"metallicFactor":0,
				"roughnessFactor":0.8942628502845764
			}
		},
		{
			"doubleSided":true,
			"name":"phong6",
			"normalTexture":{
				"index":4
			},
			"pbrMetallicRoughness":{
				"baseColorTexture":{
					"index":5
				},
				"metallicFactor":0,
				"roughnessFactor":0.8942628502845764
			}
		},
		{
			"doubleSided":true,
			"name":"phong7",
			"normalTexture":{
				"index":6
			},
			"pbrMetallicRoughness":{
				"baseColorTexture":{
					"index":7
				},
				"metallicFactor":0,
				"roughnessFactor":0.8942628502845764
			}
		}
	],
	"meshes":[
		{
			"name":"asd_1_phong4_0",
			"primitives":[
				{
					"attributes":{
						"POSITION":0,
						"NORMAL":1,
						"TEXCOORD_0":2,
						"TEXCOORD_1":3
					},
					"indices":4,
					"material":0
				}
			]
		},
		{
			"name":"asd_2_phong5_0",
			"primitives":[
				{
					"attributes":{
						"POSITION":5,
						"NORMAL":6,
						"TEXCOORD_0":7,
						"TEXCOORD_1":8
					},
					"indices":9,
					"material":1
				}
			]
		},
		{
			"name":"asd_3_phong6_0",
			"primitives":[
				{
					"attributes":{
						"POSITION":10,
						"NORMAL":11,
						"TEXCOORD_0":12,
						"TEXCOORD_1":13
					},
					"indices":14,
					"material":2
				}
			]
		},
		{
			"name":"asd_4_phong7_0",
			"primitives":[
				{
					"attributes":{
						"POSITION":15,
						"NORMAL":16,
						"TEXCOORD_0":17,
						"TEXCOORD_1":18
					},
					"indices":19,
					"material":3
				}
			]
		}
	],
	"textures":[
		{
			"sampler":0,
			"source":0
		},
		{
			"sampler":0,
			"source":1
		},
		{
			"sampler":0,
			"source":2
		},
		{
			"sampler":0,
			"source":3
		},
		{
			"sampler":0,
			"source":4
		},
		{
			"sampler":0,
			"source":5
		},
		{
			"sampler":0,
			"source":6
		},
		{
			"sampler":0,
			"source":7
		}
	],
	"images":[
		{
			"mimeType":"image/png",
			"name":"phong4_normal",
			"uri":"phong4_normal.png"
		},
		{
			"mimeType":"image/jpeg",
			"name":"phong4_baseColor",
			"uri":"phong4_baseColor.jpg"
		},
		{
			"mimeType":"image/png",
			"name":"phong5_normal",
			"uri":"phong5_normal.png"
		},
		{
			"mimeType":"image/jpeg",
			"name":"phong5_baseColor",
			"uri":"phong5_baseColor.jpg"
		},
		{
			"mimeType":"image/png",
			"name":"phong6_normal",
			"uri":"phong6_normal.png"
		},
		{
			"mimeType":"image/jpeg",
			"name":"phong6_baseColor",
			"uri":"phong6_baseColor.jpg"
		},
		{
			"mimeType":"image/png",
			"name":"phong7_normal",
			"uri":"phong7_normal.png"
		},
		{
			"mimeType":"image/jpeg",
			"name":"phong7_baseColor",
			"uri":"phong7_baseColor.jpg"
		}
	],
	"accessors":[
		{
			"bufferView":0,
			"componentType":5126,
			"count":2670,
			"max":[
				7.4770002365112305,
				0.6876000761985779,
				1.2154000997543335
			],
			"min":[
				-6.990599632263184,
				-0.739799976348877,
				-1.111899971961975
			],
			"type":"VEC3"
		},
		{
			"bufferView":1,
			"componentType":5126,
			"count":2670,
			"type":"VEC3"
		},
		{
			"bufferView":2,
			"componentType":5126,
			"count":2670,
			"type":"VEC2"
		},
		{
			"bufferView":3,
			"componentType":5126,
			"count":2670,
			"type":"VEC2"
		},
		{
			"bufferView":4,
			"componentType":5123,
			"count":15000,
			"type":"SCALAR"
		},
		{
			"bufferView":5,
			"componentType":5126,
			"count":2612,
			"max":[
				7.276300430297852,
				0.8387999534606934,
				1.1390999555587769
			],
			"min":[
				-7.111100196838379,
				-0.5092999339103699,
				-1.1230000257492065
			],
			"type":"VEC3"
		},
		{
			"bufferView":6,
			"componentType":5126,
			"count":2612,
			"type":"VEC3"
		},
		{
			"bufferView":7,
			"componentType":5126,
			"count":2612,
			"type":"VEC2"
		},
		{
			"bufferView":8,
			"componentType":5126,
			"count":2612,
			"type":"VEC2"
		},
		{
			"bufferView":9,
			"componentType":5123,
			"count":15000,
			"type":"SCALAR"
		},
		{
			"bufferView":10,
			"componentType":5126,
			"count":2611,
			"max":[
				7.36430025100708,
				0.7983999848365784,
				1.2375003099441528
			],
			"min":[
				-7.171200275421143,
				-0.597000002861023,
				-1.1318000555038452
			],
			"type":"VEC3"
		},
		{
			"bufferView":11,
			"componentType":5126,
			"count":2611,
			"type":"VEC3"
		},
		{
			"bufferView":12,
			"componentType":5126,
			"count":2611,
			"type":"VEC2"
		},
		{
			"bufferView":13,
			"componentType":5126,
			"count":2611,
			"type":"VEC2"
		},
		{
			"bufferView":14,
			"componentType":5123,
			"count":15000,
			"type":"SCALAR"
		},
		{
			"bufferView":15,
			"componentType":5126,
			"count":2750,
			"max":[
				7.4872002601623535,
				0.6633999943733215,
				1.1676000356674194
			],
			"min":[
				-6.993000507354736,
				-0.6904000043869019,
				-1.1071001291275024
			],
			"type":"VEC3"
		},
		{
			"bufferView":16,
			"componentType":5126,
			"count":2750,
			"type":"VEC3"
		},
		{
			"bufferView":17,
			"componentType":5126,
			"count":2750,
			"type":"VEC2"
		},
		{
			"bufferView":18,
			"componentType":5126,
			"count":2750,
			"type":"VEC2"
		},
		{
			"bufferView":19,
			"componentType":5123,
			"count":15000,
			"type":"SCALAR"
		}
	],
	"bufferViews":[
		{
			"buffer":0,
			"byteLength":32040,
			"byteOffset":0,
			"target":34962
		},
		{
			"buffer":0,
			"byteLength":32040,
			"byteOffset":32040,
			"target":34962
		},
		{
			"buffer":0,
			"byteLength":21360,
			"byteOffset":64080,
			"target":34962
		},
		{
			"buffer":0,
			"byteLength":21360,
			"byteOffset":85440,
			"target":34962
		},
		{
			"buffer":0,
			"byteLength":30000,
			"byteOffset":106800,
			"target":34963
		},
		{
			"buffer":0,
			"byteLength":31344,
			"byteOffset":136800,
			"target":34962
		},
		{
			"buffer":0,
			"byteLength":31344,
			"byteOffset":168144,
			"target":34962
		},
		{
			"buffer":0,
			"byteLength":20896,
			"byteOffset":199488,
			"target":34962
		},
		{
			"buffer":0,
			"byteLength":20896,
			"byteOffset":220384,
			"target":34962
		},
		{
			"buffer":0,
			"byteLength":30000,
			"byteOffset":241280,
			"target":34963
		},
		{
			"buffer":0,
			"byteLength":31332,
			"byteOffset":271280,
			"target":34962
		},
		{
			"buffer":0,
			"byteLength":31332,
			"byteOffset":302612,
			"target":34962
		},
		{
			"buffer":0,
			"byteLength":20888,
			"byteOffset":333944,
			"target":34962
		},
		{
			"buffer":0,
			"byteLength":20888,
			"byteOffset":354832,
			"target":34962
		},
		{
			"buffer":0,
			"byteLength":30000,
			"byteOffset":375720,
			"target":34963
		},
		{
			"buffer":0,
			"byteLength":33000,
			"byteOffset":405720,
			"target":34962
		},
		{
			"buffer":0,
			"byteLength":33000,
			"byteOffset":438720,
			"target":34962
		},
		{
			"buffer":0,
			"byteLength":22000,
			"byteOffset":471720,
			"target":34962
		},
		{
			"buffer":0,
			"byteLength":22000,
			"byteOffset":493720,
			"target":34962
		},
		{
			"buffer":0,
			"byteLength":30000,
			"byteOffset":515720,
			"target":34963
		}
	],
	"samplers":[
		{
			"magFilter":9729,
			"minFilter":9987
		}
	],
	"buffers":[
		{
			"byteLength":545720,
			"uri":"yut.bin"
		}
	]
}
