{
	"asset":{
		"generator":"Khronos glTF Blender I/O v4.3.47",
		"version":"2.0"
	},
	"extensionsUsed":[
		"KHR_materials_specular"
	],
	"scene":0,
	"scenes":[
		{
			"name":"Scene",
			"nodes":[
				0,
				1,
				2,
				3,
				4,
				5,
				6,
				7,
				8
			]
		}
	],
	"nodes":[
		{
			"mesh":0,
			"name":"four",
			"rotation":[
				0.5405796766281128,
				0.4649703800678253,
				-0.45213621854782104,
				0.535862922668457
			],
			"scale":[
				0.11776807904243469,
				0.11776807904243469,
				0.11776808649301529
			],
			"translation":[
				0.004022836685180664,
				0.014817919582128525,
				-0.003832639195024967
			]
		},
		{
			"mesh":1,
			"name":"one",
			"scale":[
				0.14454293251037598,
				0.012835687957704067,
				0.14454293251037598
			],
			"translation":[
				-0.01317211240530014,
				0.6049895882606506,
				0.008429408073425293
			]
		},
		{
			"mesh":2,
			"name":"seven",
			"rotation":[
				0.5222315192222595,
				-0.47587090730667114,
				0.47533372044563293,
				0.524289071559906
			],
			"scale":[
				0.10689853131771088,
				0.10689851641654968,
				0.10689853876829147
			],
			"translation":[
				-0.014708902686834335,
				0.020213305950164795,
				-0.014442801475524902
			]
		},
		{
			"mesh":3,
			"name":"five",
			"rotation":[
				0.5405796766281128,
				0.4649703800678253,
				-0.45213621854782104,
				0.535862922668457
			],
			"scale":[
				0.11776807904243469,
				0.11776807904243469,
				0.11776808649301529
			],
			"translation":[
				0.011165186762809753,
				-0.0019045863300561905,
				-0.006087305955588818
			]
		},
		{
			"mesh":4,
			"name":"eight",
			"rotation":[
				0.5222315192222595,
				-0.47587090730667114,
				0.47533372044563293,
				0.524289071559906
			],
			"scale":[
				0.10689853131771088,
				0.10689851641654968,
				0.10689853876829147
			],
			"translation":[
				-0.009092137217521667,
				0.00064102653414011,
				-0.008649589493870735
			]
		},
		{
			"mesh":5,
			"name":"two",
			"scale":[
				0.14454293251037598,
				0.012835687957704067,
				0.14454293251037598
			],
			"translation":[
				-0.0008436515927314758,
				0.6370710134506226,
				-0.0023678638972342014
			]
		},
		{
			"mesh":6,
			"name":"six",
			"rotation":[
				0.5405796766281128,
				0.4649703800678253,
				-0.45213621854782104,
				0.535862922668457
			],
			"scale":[
				0.11776807904243469,
				0.11776807904243469,
				0.11776808649301529
			],
			"translation":[
				0.008549764752388,
				0.0032748845405876637,
				-0.01401382777839899
			]
		},
		{
			"mesh":7,
			"name":"nine",
			"rotation":[
				0.5222315192222595,
				-0.47587090730667114,
				0.47533372044563293,
				0.524289071559906
			],
			"scale":[
				0.10689853131771088,
				0.10689851641654968,
				0.10689853876829147
			],
			"translation":[
				-0.021760791540145874,
				0.014030889607965946,
				-0.008115412667393684
			]
		},
		{
			"mesh":8,
			"name":"three",
			"scale":[
				0.14454293251037598,
				0.012835687957704067,
				0.14454293251037598
			],
			"translation":[
				-0.004843473434448242,
				0.6188210248947144,
				-0.009320240467786789
			]
		}
	],
	"materials":[
		{
			"doubleSided":true,
			"extensions":{
				"KHR_materials_specular":{
					"specularFactor":0
				}
			},
			"name":"Material.002",
			"pbrMetallicRoughness":{
				"baseColorFactor":[
					0.800000011920929,
					0.800000011920929,
					0.800000011920929,
					1
				],
				"metallicFactor":0
			}
		},
		{
			"doubleSided":true,
			"name":"gold.001",
			"pbrMetallicRoughness":{
				"baseColorFactor":[
					1,
					0.8532454967498779,
					0.07631465047597885,
					1
				],
				"metallicFactor":0.1454545259475708,
				"roughnessFactor":0.269696980714798
			}
		},
		{
			"doubleSided":true,
			"name":"Base black.001",
			"pbrMetallicRoughness":{
				"baseColorFactor":[
					0.05612850934267044,
					0.05612850934267044,
					0.05612850934267044,
					1
				],
				"metallicFactor":0,
				"roughnessFactor":0.5
			}
		},
		{
			"doubleSided":true,
			"name":"Star.001",
			"pbrMetallicRoughness":{
				"baseColorFactor":[
					0.800000011920929,
					0.800000011920929,
					0.800000011920929,
					1
				],
				"metallicFactor":0,
				"roughnessFactor":0.4000000059604645
			}
		},
		{
			"doubleSided":true,
			"name":"Material.005",
			"pbrMetallicRoughness":{
				"baseColorFactor":[
					0.800000011920929,
					0.2523060142993927,
					0,
					1
				],
				"roughnessFactor":0.08851999044418335
			}
		},
		{
			"doubleSided":true,
			"extensions":{
				"KHR_materials_specular":{
					"specularFactor":0
				}
			},
			"name":"Material.006",
			"pbrMetallicRoughness":{
				"baseColorFactor":[
					0.800000011920929,
					0.800000011920929,
					0.800000011920929,
					1
				],
				"metallicFactor":0
			}
		},
		{
			"doubleSided":true,
			"name":"Material.007",
			"pbrMetallicRoughness":{
				"baseColorFactor":[
					0.800000011920929,
					0.2523060142993927,
					0,
					1
				],
				"roughnessFactor":0.08851999044418335
			}
		},
		{
			"doubleSided":true,
			"name":"gold.002",
			"pbrMetallicRoughness":{
				"baseColorFactor":[
					1,
					0.8532454967498779,
					0.07631465047597885,
					1
				],
				"metallicFactor":0.1454545259475708,
				"roughnessFactor":0.269696980714798
			}
		},
		{
			"doubleSided":true,
			"name":"Base black.002",
			"pbrMetallicRoughness":{
				"baseColorFactor":[
					0.05612850934267044,
					0.05612850934267044,
					0.05612850934267044,
					1
				],
				"metallicFactor":0,
				"roughnessFactor":0.5
			}
		},
		{
			"doubleSided":true,
			"name":"Star.002",
			"pbrMetallicRoughness":{
				"baseColorFactor":[
					0.800000011920929,
					0.800000011920929,
					0.800000011920929,
					1
				],
				"metallicFactor":0,
				"roughnessFactor":0.4000000059604645
			}
		},
		{
			"doubleSided":true,
			"extensions":{
				"KHR_materials_specular":{
					"specularFactor":0
				}
			},
			"name":"Material.008",
			"pbrMetallicRoughness":{
				"baseColorFactor":[
					0.800000011920929,
					0.800000011920929,
					0.800000011920929,
					1
				],
				"metallicFactor":0
			}
		},
		{
			"doubleSided":true,
			"name":"Material.009",
			"pbrMetallicRoughness":{
				"baseColorFactor":[
					0.800000011920929,
					0.2523060142993927,
					0,
					1
				],
				"roughnessFactor":0.08851999044418335
			}
		},
		{
			"doubleSided":true,
			"name":"gold.003",
			"pbrMetallicRoughness":{
				"baseColorFactor":[
					1,
					0.8532454967498779,
					0.07631465047597885,
					1
				],
				"metallicFactor":0.1454545259475708,
				"roughnessFactor":0.269696980714798
			}
		},
		{
			"doubleSided":true,
			"name":"Base black.003",
			"pbrMetallicRoughness":{
				"baseColorFactor":[
					0.05612850934267044,
					0.05612850934267044,
					0.05612850934267044,
					1
				],
				"metallicFactor":0,
				"roughnessFactor":0.5
			}
		},
		{
			"doubleSided":true,
			"name":"Star.003",
			"pbrMetallicRoughness":{
				"baseColorFactor":[
					0.800000011920929,
					0.800000011920929,
					0.800000011920929,
					1
				],
				"metallicFactor":0,
				"roughnessFactor":0.4000000059604645
			}
		}
	],
	"meshes":[
		{
			"name":"Trophy_Cylinder.004",
			"primitives":[
				{
					"attributes":{
						"POSITION":0,
						"NORMAL":1,
						"TEXCOORD_0":2
					},
					"indices":3,
					"material":0
				}
			]
		},
		{
			"name":"Cylinder.001",
			"primitives":[
				{
					"attributes":{
						"POSITION":4,
						"NORMAL":5,
						"TEXCOORD_0":6
					},
					"indices":7,
					"material":1
				},
				{
					"attributes":{
						"POSITION":8,
						"NORMAL":9,
						"TEXCOORD_0":10
					},
					"indices":11,
					"material":2
				},
				{
					"attributes":{
						"POSITION":12,
						"NORMAL":13,
						"TEXCOORD_0":14
					},
					"indices":15,
					"material":3
				}
			]
		},
		{
			"name":"Trophy_Cylinder.001",
			"primitives":[
				{
					"attributes":{
						"POSITION":16,
						"NORMAL":17,
						"TEXCOORD_0":18
					},
					"indices":19,
					"material":4
				}
			]
		},
		{
			"name":"Trophy_Cylinder.002",
			"primitives":[
				{
					"attributes":{
						"POSITION":20,
						"NORMAL":21,
						"TEXCOORD_0":22
					},
					"indices":3,
					"material":5
				}
			]
		},
		{
			"name":"Trophy_Cylinder.003",
			"primitives":[
				{
					"attributes":{
						"POSITION":23,
						"NORMAL":24,
						"TEXCOORD_0":25
					},
					"indices":19,
					"material":6
				}
			]
		},
		{
			"name":"Cylinder.002",
			"primitives":[
				{
					"attributes":{
						"POSITION":26,
						"NORMAL":27,
						"TEXCOORD_0":28
					},
					"indices":7,
					"material":7
				},
				{
					"attributes":{
						"POSITION":29,
						"NORMAL":30,
						"TEXCOORD_0":31
					},
					"indices":11,
					"material":8
				},
				{
					"attributes":{
						"POSITION":32,
						"NORMAL":33,
						"TEXCOORD_0":34
					},
					"indices":15,
					"material":9
				}
			]
		},
		{
			"name":"Trophy_Cylinder.005",
			"primitives":[
				{
					"attributes":{
						"POSITION":35,
						"NORMAL":36,
						"TEXCOORD_0":37
					},
					"indices":3,
					"material":10
				}
			]
		},
		{
			"name":"Trophy_Cylinder.006",
			"primitives":[
				{
					"attributes":{
						"POSITION":38,
						"NORMAL":39,
						"TEXCOORD_0":40
					},
					"indices":19,
					"material":11
				}
			]
		},
		{
			"name":"Cylinder.003",
			"primitives":[
				{
					"attributes":{
						"POSITION":41,
						"NORMAL":42,
						"TEXCOORD_0":43
					},
					"indices":7,
					"material":12
				},
				{
					"attributes":{
						"POSITION":44,
						"NORMAL":45,
						"TEXCOORD_0":46
					},
					"indices":11,
					"material":13
				},
				{
					"attributes":{
						"POSITION":47,
						"NORMAL":48,
						"TEXCOORD_0":49
					},
					"indices":15,
					"material":14
				}
			]
		}
	],
	"accessors":[
		{
			"bufferView":0,
			"componentType":5126,
			"count":3733,
			"max":[
				1.34232497215271,
				0.7351670265197754,
				0.0729139968752861
			],
			"min":[
				-1.342811942100525,
				-0.7351670265197754,
				-2.8423869609832764
			],
			"type":"VEC3"
		},
		{
			"bufferView":1,
			"componentType":5126,
			"count":3733,
			"type":"VEC3"
		},
		{
			"bufferView":2,
			"componentType":5126,
			"count":3733,
			"type":"VEC2"
		},
		{
			"bufferView":3,
			"componentType":5123,
			"count":19926,
			"type":"SCALAR"
		},
		{
			"bufferView":4,
			"componentType":5126,
			"count":14682,
			"max":[
				1.0561484098434448,
				1.0000004768371582,
				1.274534821510315
			],
			"min":[
				-1.0561484098434448,
				-43.420318603515625,
				-1.3053592443466187
			],
			"type":"VEC3"
		},
		{
			"bufferView":5,
			"componentType":5126,
			"count":14682,
			"type":"VEC3"
		},
		{
			"bufferView":6,
			"componentType":5126,
			"count":14682,
			"type":"VEC2"
		},
		{
			"bufferView":7,
			"componentType":5123,
			"count":77190,
			"type":"SCALAR"
		},
		{
			"bufferView":8,
			"componentType":5126,
			"count":2342,
			"max":[
				1.0890804529190063,
				-33.75669860839844,
				1.1156545877456665
			],
			"min":[
				-0.9604564905166626,
				-45.45330047607422,
				-1.1269608736038208
			],
			"type":"VEC3"
		},
		{
			"bufferView":9,
			"componentType":5126,
			"count":2342,
			"type":"VEC3"
		},
		{
			"bufferView":10,
			"componentType":5126,
			"count":2342,
			"type":"VEC2"
		},
		{
			"bufferView":11,
			"componentType":5123,
			"count":11706,
			"type":"SCALAR"
		},
		{
			"bufferView":12,
			"componentType":5126,
			"count":62,
			"max":[
				1.0129070281982422,
				-5.752553462982178,
				0.36006662249565125
			],
			"min":[
				0.6666913628578186,
				-13.623695373535156,
				-0.3484766185283661
			],
			"type":"VEC3"
		},
		{
			"bufferView":13,
			"componentType":5126,
			"count":62,
			"type":"VEC3"
		},
		{
			"bufferView":14,
			"componentType":5126,
			"count":62,
			"type":"VEC2"
		},
		{
			"bufferView":15,
			"componentType":5123,
			"count":120,
			"type":"SCALAR"
		},
		{
			"bufferView":16,
			"componentType":5126,
			"count":3964,
			"max":[
				1.34232497215271,
				0.7351670265197754,
				0.0729139968752861
			],
			"min":[
				-1.342811942100525,
				-0.7351670265197754,
				-2.8423869609832764
			],
			"type":"VEC3"
		},
		{
			"bufferView":17,
			"componentType":5126,
			"count":3964,
			"type":"VEC3"
		},
		{
			"bufferView":18,
			"componentType":5126,
			"count":3964,
			"type":"VEC2"
		},
		{
			"bufferView":19,
			"componentType":5123,
			"count":21270,
			"type":"SCALAR"
		},
		{
			"bufferView":20,
			"componentType":5126,
			"count":3733,
			"max":[
				1.34232497215271,
				0.7351670265197754,
				0.0729139968752861
			],
			"min":[
				-1.342811942100525,
				-0.7351670265197754,
				-2.8423869609832764
			],
			"type":"VEC3"
		},
		{
			"bufferView":21,
			"componentType":5126,
			"count":3733,
			"type":"VEC3"
		},
		{
			"bufferView":22,
			"componentType":5126,
			"count":3733,
			"type":"VEC2"
		},
		{
			"bufferView":23,
			"componentType":5126,
			"count":3964,
			"max":[
				1.34232497215271,
				0.7351670265197754,
				0.0729139968752861
			],
			"min":[
				-1.342811942100525,
				-0.7351670265197754,
				-2.8423869609832764
			],
			"type":"VEC3"
		},
		{
			"bufferView":24,
			"componentType":5126,
			"count":3964,
			"type":"VEC3"
		},
		{
			"bufferView":25,
			"componentType":5126,
			"count":3964,
			"type":"VEC2"
		},
		{
			"bufferView":26,
			"componentType":5126,
			"count":14682,
			"max":[
				1.0561484098434448,
				1.0000004768371582,
				1.274534821510315
			],
			"min":[
				-1.0561484098434448,
				-43.420318603515625,
				-1.3053592443466187
			],
			"type":"VEC3"
		},
		{
			"bufferView":27,
			"componentType":5126,
			"count":14682,
			"type":"VEC3"
		},
		{
			"bufferView":28,
			"componentType":5126,
			"count":14682,
			"type":"VEC2"
		},
		{
			"bufferView":29,
			"componentType":5126,
			"count":2342,
			"max":[
				1.0890804529190063,
				-33.75669860839844,
				1.1156545877456665
			],
			"min":[
				-0.9604564905166626,
				-45.45330047607422,
				-1.1269608736038208
			],
			"type":"VEC3"
		},
		{
			"bufferView":30,
			"componentType":5126,
			"count":2342,
			"type":"VEC3"
		},
		{
			"bufferView":31,
			"componentType":5126,
			"count":2342,
			"type":"VEC2"
		},
		{
			"bufferView":32,
			"componentType":5126,
			"count":62,
			"max":[
				1.0129070281982422,
				-5.752553462982178,
				0.36006662249565125
			],
			"min":[
				0.6666913628578186,
				-13.623695373535156,
				-0.3484766185283661
			],
			"type":"VEC3"
		},
		{
			"bufferView":33,
			"componentType":5126,
			"count":62,
			"type":"VEC3"
		},
		{
			"bufferView":34,
			"componentType":5126,
			"count":62,
			"type":"VEC2"
		},
		{
			"bufferView":35,
			"componentType":5126,
			"count":3733,
			"max":[
				1.34232497215271,
				0.7351670265197754,
				0.0729139968752861
			],
			"min":[
				-1.342811942100525,
				-0.7351670265197754,
				-2.8423869609832764
			],
			"type":"VEC3"
		},
		{
			"bufferView":36,
			"componentType":5126,
			"count":3733,
			"type":"VEC3"
		},
		{
			"bufferView":37,
			"componentType":5126,
			"count":3733,
			"type":"VEC2"
		},
		{
			"bufferView":38,
			"componentType":5126,
			"count":3964,
			"max":[
				1.34232497215271,
				0.7351670265197754,
				0.0729139968752861
			],
			"min":[
				-1.342811942100525,
				-0.7351670265197754,
				-2.8423869609832764
			],
			"type":"VEC3"
		},
		{
			"bufferView":39,
			"componentType":5126,
			"count":3964,
			"type":"VEC3"
		},
		{
			"bufferView":40,
			"componentType":5126,
			"count":3964,
			"type":"VEC2"
		},
		{
			"bufferView":41,
			"componentType":5126,
			"count":14682,
			"max":[
				1.0561484098434448,
				1.0000004768371582,
				1.274534821510315
			],
			"min":[
				-1.0561484098434448,
				-43.420318603515625,
				-1.3053592443466187
			],
			"type":"VEC3"
		},
		{
			"bufferView":42,
			"componentType":5126,
			"count":14682,
			"type":"VEC3"
		},
		{
			"bufferView":43,
			"componentType":5126,
			"count":14682,
			"type":"VEC2"
		},
		{
			"bufferView":44,
			"componentType":5126,
			"count":2342,
			"max":[
				1.0890804529190063,
				-33.75669860839844,
				1.1156545877456665
			],
			"min":[
				-0.9604564905166626,
				-45.45330047607422,
				-1.1269608736038208
			],
			"type":"VEC3"
		},
		{
			"bufferView":45,
			"componentType":5126,
			"count":2342,
			"type":"VEC3"
		},
		{
			"bufferView":46,
			"componentType":5126,
			"count":2342,
			"type":"VEC2"
		},
		{
			"bufferView":47,
			"componentType":5126,
			"count":62,
			"max":[
				1.0129070281982422,
				-5.752553462982178,
				0.36006662249565125
			],
			"min":[
				0.6666913628578186,
				-13.623695373535156,
				-0.3484766185283661
			],
			"type":"VEC3"
		},
		{
			"bufferView":48,
			"componentType":5126,
			"count":62,
			"type":"VEC3"
		},
		{
			"bufferView":49,
			"componentType":5126,
			"count":62,
			"type":"VEC2"
		}
	],
	"bufferViews":[
		{
			"buffer":0,
			"byteLength":44796,
			"byteOffset":0,
			"target":34962
		},
		{
			"buffer":0,
			"byteLength":44796,
			"byteOffset":44796,
			"target":34962
		},
		{
			"buffer":0,
			"byteLength":29864,
			"byteOffset":89592,
			"target":34962
		},
		{
			"buffer":0,
			"byteLength":39852,
			"byteOffset":119456,
			"target":34963
		},
		{
			"buffer":0,
			"byteLength":176184,
			"byteOffset":159308,
			"target":34962
		},
		{
			"buffer":0,
			"byteLength":176184,
			"byteOffset":335492,
			"target":34962
		},
		{
			"buffer":0,
			"byteLength":117456,
			"byteOffset":511676,
			"target":34962
		},
		{
			"buffer":0,
			"byteLength":154380,
			"byteOffset":629132,
			"target":34963
		},
		{
			"buffer":0,
			"byteLength":28104,
			"byteOffset":783512,
			"target":34962
		},
		{
			"buffer":0,
			"byteLength":28104,
			"byteOffset":811616,
			"target":34962
		},
		{
			"buffer":0,
			"byteLength":18736,
			"byteOffset":839720,
			"target":34962
		},
		{
			"buffer":0,
			"byteLength":23412,
			"byteOffset":858456,
			"target":34963
		},
		{
			"buffer":0,
			"byteLength":744,
			"byteOffset":881868,
			"target":34962
		},
		{
			"buffer":0,
			"byteLength":744,
			"byteOffset":882612,
			"target":34962
		},
		{
			"buffer":0,
			"byteLength":496,
			"byteOffset":883356,
			"target":34962
		},
		{
			"buffer":0,
			"byteLength":240,
			"byteOffset":883852,
			"target":34963
		},
		{
			"buffer":0,
			"byteLength":47568,
			"byteOffset":884092,
			"target":34962
		},
		{
			"buffer":0,
			"byteLength":47568,
			"byteOffset":931660,
			"target":34962
		},
		{
			"buffer":0,
			"byteLength":31712,
			"byteOffset":979228,
			"target":34962
		},
		{
			"buffer":0,
			"byteLength":42540,
			"byteOffset":1010940,
			"target":34963
		},
		{
			"buffer":0,
			"byteLength":44796,
			"byteOffset":1053480,
			"target":34962
		},
		{
			"buffer":0,
			"byteLength":44796,
			"byteOffset":1098276,
			"target":34962
		},
		{
			"buffer":0,
			"byteLength":29864,
			"byteOffset":1143072,
			"target":34962
		},
		{
			"buffer":0,
			"byteLength":47568,
			"byteOffset":1172936,
			"target":34962
		},
		{
			"buffer":0,
			"byteLength":47568,
			"byteOffset":1220504,
			"target":34962
		},
		{
			"buffer":0,
			"byteLength":31712,
			"byteOffset":1268072,
			"target":34962
		},
		{
			"buffer":0,
			"byteLength":176184,
			"byteOffset":1299784,
			"target":34962
		},
		{
			"buffer":0,
			"byteLength":176184,
			"byteOffset":1475968,
			"target":34962
		},
		{
			"buffer":0,
			"byteLength":117456,
			"byteOffset":1652152,
			"target":34962
		},
		{
			"buffer":0,
			"byteLength":28104,
			"byteOffset":1769608,
			"target":34962
		},
		{
			"buffer":0,
			"byteLength":28104,
			"byteOffset":1797712,
			"target":34962
		},
		{
			"buffer":0,
			"byteLength":18736,
			"byteOffset":1825816,
			"target":34962
		},
		{
			"buffer":0,
			"byteLength":744,
			"byteOffset":1844552,
			"target":34962
		},
		{
			"buffer":0,
			"byteLength":744,
			"byteOffset":1845296,
			"target":34962
		},
		{
			"buffer":0,
			"byteLength":496,
			"byteOffset":1846040,
			"target":34962
		},
		{
			"buffer":0,
			"byteLength":44796,
			"byteOffset":1846536,
			"target":34962
		},
		{
			"buffer":0,
			"byteLength":44796,
			"byteOffset":1891332,
			"target":34962
		},
		{
			"buffer":0,
			"byteLength":29864,
			"byteOffset":1936128,
			"target":34962
		},
		{
			"buffer":0,
			"byteLength":47568,
			"byteOffset":1965992,
			"target":34962
		},
		{
			"buffer":0,
			"byteLength":47568,
			"byteOffset":2013560,
			"target":34962
		},
		{
			"buffer":0,
			"byteLength":31712,
			"byteOffset":2061128,
			"target":34962
		},
		{
			"buffer":0,
			"byteLength":176184,
			"byteOffset":2092840,
			"target":34962
		},
		{
			"buffer":0,
			"byteLength":176184,
			"byteOffset":2269024,
			"target":34962
		},
		{
			"buffer":0,
			"byteLength":117456,
			"byteOffset":2445208,
			"target":34962
		},
		{
			"buffer":0,
			"byteLength":28104,
			"byteOffset":2562664,
			"target":34962
		},
		{
			"buffer":0,
			"byteLength":28104,
			"byteOffset":2590768,
			"target":34962
		},
		{
			"buffer":0,
			"byteLength":18736,
			"byteOffset":2618872,
			"target":34962
		},
		{
			"buffer":0,
			"byteLength":744,
			"byteOffset":2637608,
			"target":34962
		},
		{
			"buffer":0,
			"byteLength":744,
			"byteOffset":2638352,
			"target":34962
		},
		{
			"buffer":0,
			"byteLength":496,
			"byteOffset":2639096,
			"target":34962
		}
	],
	"buffers":[
		{
			"byteLength":2639592,
			"uri":"awards.bin"
		}
	]
}
