{
	"asset":{
		"generator":"Khronos glTF Blender I/O v4.3.47",
		"version":"2.0"
	},
	"extensionsUsed":[
		"KHR_materials_specular"
	],
	"scene":0,
	"scenes":[
		{
			"name":"Scene",
			"nodes":[
				0,
				1,
				2
			]
		}
	],
	"nodes":[
		{
			"mesh":0,
			"name":"two",
			"rotation":[
				0.5405796766281128,
				0.4649703800678253,
				-0.45213621854782104,
				0.535862922668457
			],
			"scale":[
				0.11776807904243469,
				0.11776807904243469,
				0.11776808649301529
			],
			"translation":[
				0.004022836685180664,
				0.014817919582128525,
				-0.003832639195024967
			]
		},
		{
			"mesh":1,
			"name":"three",
			"rotation":[
				0.5405796766281128,
				0.4649703800678253,
				-0.45213621854782104,
				0.535862922668457
			],
			"scale":[
				0.11776807904243469,
				0.11776807904243469,
				0.11776808649301529
			],
			"translation":[
				0.004022836685180664,
				0.014817919582128525,
				-0.003832639195024967
			]
		},
		{
			"mesh":2,
			"name":"one",
			"rotation":[
				0.5405796766281128,
				0.4649703800678253,
				-0.45213621854782104,
				0.535862922668457
			],
			"scale":[
				0.11776807904243469,
				0.11776807904243469,
				0.11776808649301529
			],
			"translation":[
				0.004022836685180664,
				0.014817919582128525,
				-0.003832639195024967
			]
		}
	],
	"materials":[
		{
			"doubleSided":true,
			"extensions":{
				"KHR_materials_specular":{
					"specularFactor":0
				}
			},
			"name":"Material.013",
			"pbrMetallicRoughness":{
				"baseColorFactor":[
					0.4286881685256958,
					0.13563348352909088,
					0.05286071076989174,
					1
				],
				"roughnessFactor":0
			}
		},
		{
			"doubleSided":true,
			"extensions":{
				"KHR_materials_specular":{
					"specularFactor":0
				}
			},
			"name":"Material.014",
			"pbrMetallicRoughness":{
				"baseColorFactor":[
					0.5971981287002563,
					0.5972025990486145,
					0.6104959845542908,
					1
				],
				"roughnessFactor":0
			}
		},
		{
			"doubleSided":true,
			"extensions":{
				"KHR_materials_specular":{
					"specularFactor":0
				}
			},
			"name":"Material.002",
			"pbrMetallicRoughness":{
				"baseColorFactor":[
					1,
					0.6866861581802368,
					0.0024283898528665304,
					1
				],
				"roughnessFactor":0
			}
		}
	],
	"meshes":[
		{
			"name":"Trophy_Cylinder.013",
			"primitives":[
				{
					"attributes":{
						"POSITION":0,
						"NORMAL":1,
						"TEXCOORD_0":2
					},
					"indices":3,
					"material":0
				}
			]
		},
		{
			"name":"Trophy_Cylinder.014",
			"primitives":[
				{
					"attributes":{
						"POSITION":4,
						"NORMAL":5,
						"TEXCOORD_0":6
					},
					"indices":3,
					"material":1
				}
			]
		},
		{
			"name":"Trophy_Cylinder.004",
			"primitives":[
				{
					"attributes":{
						"POSITION":7,
						"NORMAL":8,
						"TEXCOORD_0":9
					},
					"indices":3,
					"material":2
				}
			]
		}
	],
	"accessors":[
		{
			"bufferView":0,
			"componentType":5126,
			"count":3733,
			"max":[
				1.34232497215271,
				0.7351670265197754,
				0.0729139968752861
			],
			"min":[
				-1.342811942100525,
				-0.7351670265197754,
				-2.8423869609832764
			],
			"type":"VEC3"
		},
		{
			"bufferView":1,
			"componentType":5126,
			"count":3733,
			"type":"VEC3"
		},
		{
			"bufferView":2,
			"componentType":5126,
			"count":3733,
			"type":"VEC2"
		},
		{
			"bufferView":3,
			"componentType":5123,
			"count":19926,
			"type":"SCALAR"
		},
		{
			"bufferView":4,
			"componentType":5126,
			"count":3733,
			"max":[
				1.34232497215271,
				0.7351670265197754,
				0.0729139968752861
			],
			"min":[
				-1.342811942100525,
				-0.7351670265197754,
				-2.8423869609832764
			],
			"type":"VEC3"
		},
		{
			"bufferView":5,
			"componentType":5126,
			"count":3733,
			"type":"VEC3"
		},
		{
			"bufferView":6,
			"componentType":5126,
			"count":3733,
			"type":"VEC2"
		},
		{
			"bufferView":7,
			"componentType":5126,
			"count":3733,
			"max":[
				1.34232497215271,
				0.7351670265197754,
				0.0729139968752861
			],
			"min":[
				-1.342811942100525,
				-0.7351670265197754,
				-2.8423869609832764
			],
			"type":"VEC3"
		},
		{
			"bufferView":8,
			"componentType":5126,
			"count":3733,
			"type":"VEC3"
		},
		{
			"bufferView":9,
			"componentType":5126,
			"count":3733,
			"type":"VEC2"
		}
	],
	"bufferViews":[
		{
			"buffer":0,
			"byteLength":44796,
			"byteOffset":0,
			"target":34962
		},
		{
			"buffer":0,
			"byteLength":44796,
			"byteOffset":44796,
			"target":34962
		},
		{
			"buffer":0,
			"byteLength":29864,
			"byteOffset":89592,
			"target":34962
		},
		{
			"buffer":0,
			"byteLength":39852,
			"byteOffset":119456,
			"target":34963
		},
		{
			"buffer":0,
			"byteLength":44796,
			"byteOffset":159308,
			"target":34962
		},
		{
			"buffer":0,
			"byteLength":44796,
			"byteOffset":204104,
			"target":34962
		},
		{
			"buffer":0,
			"byteLength":29864,
			"byteOffset":248900,
			"target":34962
		},
		{
			"buffer":0,
			"byteLength":44796,
			"byteOffset":278764,
			"target":34962
		},
		{
			"buffer":0,
			"byteLength":44796,
			"byteOffset":323560,
			"target":34962
		},
		{
			"buffer":0,
			"byteLength":29864,
			"byteOffset":368356,
			"target":34962
		}
	],
	"buffers":[
		{
			"byteLength":398220,
			"uri":"awards.bin"
		}
	]
}
